<svg xmlns:xlink="http://www.w3.org/1999/xlink" xmlns="http://www.w3.org/2000/svg" version="1.1" style="font-family: &quot;Lucida Grande&quot;, &quot;Lucida Sans Unicode&quot;, Arial, Helvetica, sans-serif; font-size: 12px;" width="600" height="400"><rect id="backgroundrect" width="100%" height="100%" x="0" y="0" fill="none" stroke="none"/><desc>Created with Highcharts 7.2.0</desc><defs><clipPath id="highcharts-jwhnwck-63-"><rect x="0" y="0" width="514" height="280" fill="none" id="svg_1"/></clipPath></defs><g class="currentLayer" style=""><title>Layer 1</title><path fill="none" stroke="none" stroke-opacity="1" stroke-width="1" stroke-dasharray="none" stroke-linejoin="miter" stroke-linecap="butt" stroke-dashoffset="" fill-rule="nonzero" opacity="1" marker-start="" marker-mid="" marker-end="" d="M28.571426391601562,34.981693267822266 L596.7032623291016,34.981693267822266 L596.7032623291016,335.7142677307129 L28.571426391601562,335.7142677307129 L28.571426391601562,34.981693267822266 Z" id="svg_2" class=""/><rect fill="none" class="highcharts-plot-background" x="76" y="47" width="514" height="280" id="svg_3"/><g class="highcharts-grid highcharts-xaxis-grid" data-z-index="1" id="svg_4"><path fill="none" data-z-index="1" class="highcharts-grid-line" d="M 80.5 47 L 80.5 327" opacity="1" id="svg_5"/><path fill="none" data-z-index="1" class="highcharts-grid-line" d="M 108.5 47 L 108.5 327" opacity="1" id="svg_6"/><path fill="none" data-z-index="1" class="highcharts-grid-line" d="M 136.5 47 L 136.5 327" opacity="1" id="svg_7"/><path fill="none" data-z-index="1" class="highcharts-grid-line" d="M 164.5 47 L 164.5 327" opacity="1" id="svg_8"/><path fill="none" data-z-index="1" class="highcharts-grid-line" d="M 192.5 47 L 192.5 327" opacity="1" id="svg_9"/><path fill="none" data-z-index="1" class="highcharts-grid-line" d="M 220.5 47 L 220.5 327" opacity="1" id="svg_10"/><path fill="none" data-z-index="1" class="highcharts-grid-line" d="M 248.5 47 L 248.5 327" opacity="1" id="svg_11"/><path fill="none" data-z-index="1" class="highcharts-grid-line" d="M 276.5 47 L 276.5 327" opacity="1" id="svg_12"/><path fill="none" data-z-index="1" class="highcharts-grid-line" d="M 304.5 47 L 304.5 327" opacity="1" id="svg_13"/><path fill="none" data-z-index="1" class="highcharts-grid-line" d="M 332.5 47 L 332.5 327" opacity="1" id="svg_14"/><path fill="none" data-z-index="1" class="highcharts-grid-line" d="M 360.5 47 L 360.5 327" opacity="1" id="svg_15"/><path fill="none" data-z-index="1" class="highcharts-grid-line" d="M 388.5 47 L 388.5 327" opacity="1" id="svg_16"/><path fill="none" data-z-index="1" class="highcharts-grid-line" d="M 416.5 47 L 416.5 327" opacity="1" id="svg_17"/><path fill="none" data-z-index="1" class="highcharts-grid-line" d="M 444.5 47 L 444.5 327" opacity="1" id="svg_18"/><path fill="none" data-z-index="1" class="highcharts-grid-line" d="M 472.5 47 L 472.5 327" opacity="1" id="svg_19"/><path fill="none" data-z-index="1" class="highcharts-grid-line" d="M 500.5 47 L 500.5 327" opacity="1" id="svg_20"/><path fill="none" data-z-index="1" class="highcharts-grid-line" d="M 528.5 47 L 528.5 327" opacity="1" id="svg_21"/><path fill="none" data-z-index="1" class="highcharts-grid-line" d="M 556.5 47 L 556.5 327" opacity="1" id="svg_22"/><path fill="none" data-z-index="1" class="highcharts-grid-line" d="M 584.5 47 L 584.5 327" opacity="1" id="svg_23"/></g><g class="highcharts-grid highcharts-yaxis-grid" data-z-index="1" id="svg_24"><path fill="none" stroke="#e6e6e6" stroke-width="1" data-z-index="1" class="highcharts-grid-line" d="M 76 327.5 L 590 327.5" opacity="1" id="svg_25"/><path fill="none" stroke="#e6e6e6" stroke-width="1" data-z-index="1" class="highcharts-grid-line" d="M 76 234.5 L 590 234.5" opacity="1" id="svg_26"/><path fill="none" stroke="#e6e6e6" stroke-width="1" data-z-index="1" class="highcharts-grid-line" d="M 76 140.5 L 590 140.5" opacity="1" id="svg_27"/><path fill="none" stroke="#e6e6e6" stroke-width="1" data-z-index="1" class="highcharts-grid-line" d="M 76 46.5 L 590 46.5" opacity="1" id="svg_28"/></g><rect fill="none" class="highcharts-plot-border" data-z-index="1" x="75.45054942369461" y="47" width="514" height="280" id="svg_29"/><g class="highcharts-axis highcharts-xaxis" data-z-index="2" id="svg_30"><path fill="none" class="highcharts-axis-line" stroke="#ccd6eb" stroke-width="1" data-z-index="7" d="M 76 327.5 L 590 327.5" id="svg_31"/></g><g class="highcharts-axis highcharts-yaxis" data-z-index="2" id="svg_32"><text x="23.703125" data-z-index="7" text-anchor="middle" transform="rotate(270 23.703125000000025,187.00000000000003) " class="highcharts-axis-title" style="color:#666666;fill:#666666;" y="187" id="svg_33"><tspan x="0" y="0" id="svg_34">Values</tspan></text><path fill="none" class="highcharts-axis-line" data-z-index="7" d="M 76 47 L 76 327" id="svg_35"/></g><g class="highcharts-series-group" data-z-index="3" id="svg_36"><g data-z-index="0.1" class="highcharts-series highcharts-series-0 highcharts-area-series " transform="translate(76,47) scale(1) " clip-path="url(#highcharts-jwhnwck-63-)" id="svg_37"><path fill="rgb(42,142,64)" fill-opacity="0.75" d="M 4.6727272727273 78.6996 L 14.018181818182 69.51933333333332 L 23.363636363636 67.77773333333334 L 32.709090909091 61.357333333333344 L 42.054545454545 59.61713333333333 L 51.4 52.8374 L 60.745454545455 47.875333333333344 L 70.090909090909 41.42226666666667 L 79.436363636364 40.79226666666668 L 88.781818181818 44.392366666666675 L 98.127272727273 47.99246666666667 L 107.47272727273 51.98853333333332 L 116.81818181818 44.32983333333334 L 126.16363636364 36.67113333333333 L 135.50909090909 38.66356666666667 L 144.85454545455 40.656000000000006 L 154.2 36.67113333333333 L 163.54545454545 42.56280000000001 L 172.89090909091 45.768333333333345 L 182.23636363636 49.96926666666667 L 191.58181818182 52.77346666666668 L 200.92727272727 56.23846666666668 L 210.27272727273 59.34273333333334 L 219.61818181818 64.54326666666668 L 228.96363636364 69.42833333333334 L 238.30909090909 72.45746666666668 L 247.65454545455 73.5504 L 257 76.05080000000001 L 266.34545454545 78.65200000000002 L 275.69090909091 83.11566666666667 L 285.03636363636 80.44399999999999 L 294.38181818182 84.53153333333333 L 303.72727272727 85.32673333333332 L 313.07272727273 86.86439999999999 L 322.41818181818 87.2578 L 331.76363636364 87.39500000000001 L 341.10909090909 91.38406666666666 L 350.45454545455 94.96573333333333 L 359.8 100.37253333333334 L 369.14545454545 104.6976 L 378.49090909091 110.37133333333333 L 387.83636363636 119.40226666666666 L 397.18181818182 127.60300000000001 L 406.52727272727 138.30366666666666 L 415.87272727273 143.08326666666667 L 425.21818181818 152.257 L 434.56363636364 162.05466666666666 L 443.90909090909 170.5158 L 453.25454545455 175.49746666666667 L 462.6 181.55666666666667 L 471.94545454545 196.08493333333334 L 481.29090909091 202.91553333333331 L 490.63636363636 211.82186666666666 L 499.98181818182 224.26973333333333 L 509.32727272727 235.26953333333333 L 509.32727272727 280 L 499.98181818182 280 L 490.63636363636 280 L 481.29090909091 280 L 471.94545454545 280 L 462.6 280 L 453.25454545455 280 L 443.90909090909 280 L 434.56363636364 280 L 425.21818181818 280 L 415.87272727273 280 L 406.52727272727 280 L 397.18181818182 280 L 387.83636363636 280 L 378.49090909091 280 L 369.14545454545 280 L 359.8 280 L 350.45454545455 280 L 341.10909090909 280 L 331.76363636364 280 L 322.41818181818 280 L 313.07272727273 280 L 303.72727272727 280 L 294.38181818182 280 L 285.03636363636 280 L 275.69090909091 280 L 266.34545454545 280 L 257 280 L 247.65454545455 280 L 238.30909090909 280 L 228.96363636364 280 L 219.61818181818 280 L 210.27272727273 280 L 200.92727272727 280 L 191.58181818182 280 L 182.23636363636 280 L 172.89090909091 280 L 163.54545454545 280 L 154.2 280 L 144.85454545455 280 L 135.50909090909 280 L 126.16363636364 280 L 116.81818181818 280 L 107.47272727273 280 L 98.127272727273 280 L 88.781818181818 280 L 79.436363636364 280 L 70.090909090909 280 L 60.745454545455 280 L 51.4 280 L 42.054545454545 280 L 32.709090909091 280 L 23.363636363636 280 L 14.018181818182 280 L 4.6727272727273 280" class="highcharts-area" data-z-index="0" id="svg_38"/><path fill="none" d="M 4.6727272727273 78.6996 L 14.018181818182 69.51933333333332 L 23.363636363636 67.77773333333334 L 32.709090909091 61.357333333333344 L 42.054545454545 59.61713333333333 L 51.4 52.8374 L 60.745454545455 47.875333333333344 L 70.090909090909 41.42226666666667 L 79.436363636364 40.79226666666668 L 88.781818181818 44.392366666666675 L 98.127272727273 47.99246666666667 L 107.47272727273 51.98853333333332 L 116.81818181818 44.32983333333334 L 126.16363636364 36.67113333333333 L 135.50909090909 38.66356666666667 L 144.85454545455 40.656000000000006 L 154.2 36.67113333333333 L 163.54545454545 42.56280000000001 L 172.89090909091 45.768333333333345 L 182.23636363636 49.96926666666667 L 191.58181818182 52.77346666666668 L 200.92727272727 56.23846666666668 L 210.27272727273 59.34273333333334 L 219.61818181818 64.54326666666668 L 228.96363636364 69.42833333333334 L 238.30909090909 72.45746666666668 L 247.65454545455 73.5504 L 257 76.05080000000001 L 266.34545454545 78.65200000000002 L 275.69090909091 83.11566666666667 L 285.03636363636 80.44399999999999 L 294.38181818182 84.53153333333333 L 303.72727272727 85.32673333333332 L 313.07272727273 86.86439999999999 L 322.41818181818 87.2578 L 331.76363636364 87.39500000000001 L 341.10909090909 91.38406666666666 L 350.45454545455 94.96573333333333 L 359.8 100.37253333333334 L 369.14545454545 104.6976 L 378.49090909091 110.37133333333333 L 387.83636363636 119.40226666666666 L 397.18181818182 127.60300000000001 L 406.52727272727 138.30366666666666 L 415.87272727273 143.08326666666667 L 425.21818181818 152.257 L 434.56363636364 162.05466666666666 L 443.90909090909 170.5158 L 453.25454545455 175.49746666666667 L 462.6 181.55666666666667 L 471.94545454545 196.08493333333334 L 481.29090909091 202.91553333333331 L 490.63636363636 211.82186666666666 L 499.98181818182 224.26973333333333 L 509.32727272727 235.26953333333333" class="highcharts-graph" data-z-index="1" stroke="#2a8e40" stroke-width="2" stroke-linejoin="round" stroke-linecap="round" id="svg_39"/></g><g data-z-index="0.1" class="highcharts-markers highcharts-series-0 highcharts-area-series " transform="translate(76,47) scale(1) " clip-path="none" id="svg_40"><path fill="#2a8e40" d="M 4 83 A 4 4 0 1 1 4.0039999993333355 82.99999800000016 Z" opacity="1" class="highcharts-point" id="svg_41"/><path fill="#2a8e40" d="M 14 74 A 4 4 0 1 1 14.003999999333336 73.99999800000016 Z" opacity="1" class="highcharts-point" id="svg_42"/><path fill="#2a8e40" d="M 23 72 A 4 4 0 1 1 23.003999999333335 71.99999800000016 Z" opacity="1" class="highcharts-point" id="svg_43"/><path fill="#2a8e40" d="M 32 65 A 4 4 0 1 1 32.00399999933334 64.99999800000016 Z" opacity="1" class="highcharts-point" id="svg_44"/><path fill="#2a8e40" d="M 42 64 A 4 4 0 1 1 42.00399999933334 63.99999800000017 Z" opacity="1" class="highcharts-point" id="svg_45"/><path fill="#2a8e40" d="M 51 57 A 4 4 0 1 1 51.00399999933334 56.99999800000017 Z" opacity="1" class="highcharts-point" id="svg_46"/><path fill="#2a8e40" d="M 60 52 A 4 4 0 1 1 60.00399999933334 51.99999800000017 Z" opacity="1" class="highcharts-point" id="svg_47"/><path fill="#2a8e40" d="M 70 45 A 4 4 0 1 1 70.00399999933333 44.99999800000017 Z" opacity="1" class="highcharts-point" id="svg_48"/><path fill="#2a8e40" d="M 79 45 A 4 4 0 1 1 79.00399999933333 44.99999800000017 Z" opacity="1" class="highcharts-point" id="svg_49"/><path fill="#2a8e40" d="M 88 48 A 4 4 0 1 1 88.00399999933333 47.99999800000017 Z" opacity="1" class="highcharts-point" id="svg_50"/><path fill="#2a8e40" d="M 98 52 A 4 4 0 1 1 98.00399999933333 51.99999800000017 Z" opacity="1" class="highcharts-point" id="svg_51"/><path fill="#2a8e40" d="M 107 56 A 4 4 0 1 1 107.00399999933333 55.99999800000017 Z" opacity="1" class="highcharts-point" id="svg_52"/><path fill="#2a8e40" d="M 116 48 A 4 4 0 1 1 116.00399999933333 47.99999800000017 Z" opacity="1" class="highcharts-point" id="svg_53"/><path fill="#2a8e40" d="M 126 41 A 4 4 0 1 1 126.00399999933333 40.99999800000017 Z" opacity="1" class="highcharts-point" id="svg_54"/><path fill="#2a8e40" d="M 135 43 A 4 4 0 1 1 135.00399999933333 42.99999800000017 Z" opacity="1" class="highcharts-point" id="svg_55"/><path fill="#2a8e40" d="M 144 45 A 4 4 0 1 1 144.00399999933333 44.99999800000017 Z" opacity="1" class="highcharts-point" id="svg_56"/><path fill="#2a8e40" d="M 154 41 A 4 4 0 1 1 154.00399999933333 40.99999800000017 Z" opacity="1" class="highcharts-point" id="svg_57"/><path fill="#2a8e40" d="M 163 47 A 4 4 0 1 1 163.00399999933333 46.99999800000017 Z" opacity="1" class="highcharts-point" id="svg_58"/><path fill="#2a8e40" d="M 172 50 A 4 4 0 1 1 172.00399999933333 49.99999800000017 Z" opacity="1" class="highcharts-point" id="svg_59"/><path fill="#2a8e40" d="M 182 54 A 4 4 0 1 1 182.00399999933333 53.99999800000017 Z" opacity="1" class="highcharts-point" id="svg_60"/><path fill="#2a8e40" d="M 191 57 A 4 4 0 1 1 191.00399999933333 56.99999800000017 Z" opacity="1" class="highcharts-point" id="svg_61"/><path fill="#2a8e40" d="M 200 60 A 4 4 0 1 1 200.00399999933333 59.99999800000017 Z" opacity="1" class="highcharts-point" id="svg_62"/><path fill="#2a8e40" d="M 210 63 A 4 4 0 1 1 210.00399999933333 62.99999800000017 Z" opacity="1" class="highcharts-point" id="svg_63"/><path fill="#2a8e40" d="M 219 69 A 4 4 0 1 1 219.00399999933333 68.99999800000016 Z" opacity="1" class="highcharts-point" id="svg_64"/><path fill="#2a8e40" d="M 228 73 A 4 4 0 1 1 228.00399999933333 72.99999800000016 Z" opacity="1" class="highcharts-point" id="svg_65"/><path fill="#2a8e40" d="M 238 76 A 4 4 0 1 1 238.00399999933333 75.99999800000016 Z" opacity="1" class="highcharts-point" id="svg_66"/><path fill="#2a8e40" d="M 247 78 A 4 4 0 1 1 247.00399999933333 77.99999800000016 Z" opacity="1" class="highcharts-point" id="svg_67"/><path fill="#2a8e40" d="M 257 80 A 4 4 0 1 1 257.00399999933336 79.99999800000016 Z" opacity="1" class="highcharts-point" id="svg_68"/><path fill="#2a8e40" d="M 266 83 A 4 4 0 1 1 266.00399999933336 82.99999800000016 Z" opacity="1" class="highcharts-point" id="svg_69"/><path fill="#2a8e40" d="M 275 87 A 4 4 0 1 1 275.00399999933336 86.99999800000016 Z" opacity="1" class="highcharts-point" id="svg_70"/><path fill="#2a8e40" d="M 285 84 A 4 4 0 1 1 285.00399999933336 83.99999800000016 Z" opacity="1" class="highcharts-point" id="svg_71"/><path fill="#2a8e40" d="M 294 89 A 4 4 0 1 1 294.00399999933336 88.99999800000016 Z" opacity="1" class="highcharts-point" id="svg_72"/><path fill="#2a8e40" d="M 303 89 A 4 4 0 1 1 303.00399999933336 88.99999800000016 Z" opacity="1" class="highcharts-point" id="svg_73"/><path fill="#2a8e40" d="M 313 91 A 4 4 0 1 1 313.00399999933336 90.99999800000016 Z" opacity="1" class="highcharts-point" id="svg_74"/><path fill="#2a8e40" d="M 322 91 A 4 4 0 1 1 322.00399999933336 90.99999800000016 Z" opacity="1" class="highcharts-point" id="svg_75"/><path fill="#2a8e40" d="M 331 91 A 4 4 0 1 1 331.00399999933336 90.99999800000016 Z" opacity="1" class="highcharts-point" id="svg_76"/><path fill="#2a8e40" d="M 341 95 A 4 4 0 1 1 341.00399999933336 94.99999800000016 Z" opacity="1" class="highcharts-point" id="svg_77"/><path fill="#2a8e40" d="M 350 99 A 4 4 0 1 1 350.00399999933336 98.99999800000016 Z" opacity="1" class="highcharts-point" id="svg_78"/><path fill="#2a8e40" d="M 359 104 A 4 4 0 1 1 359.00399999933336 103.99999800000016 Z" opacity="1" class="highcharts-point" id="svg_79"/><path fill="#2a8e40" d="M 369 109 A 4 4 0 1 1 369.00399999933336 108.99999800000016 Z" opacity="1" class="highcharts-point" id="svg_80"/><path fill="#2a8e40" d="M 378 114 A 4 4 0 1 1 378.00399999933336 113.99999800000016 Z" opacity="1" class="highcharts-point" id="svg_81"/><path fill="#2a8e40" d="M 387 123 A 4 4 0 1 1 387.00399999933336 122.99999800000016 Z" opacity="1" class="highcharts-point" id="svg_82"/><path fill="#2a8e40" d="M 397 132 A 4 4 0 1 1 397.00399999933336 131.99999800000018 Z" opacity="1" class="highcharts-point" id="svg_83"/><path fill="#2a8e40" d="M 406 142 A 4 4 0 1 1 406.00399999933336 141.99999800000018 Z" opacity="1" class="highcharts-point" id="svg_84"/><path fill="#2a8e40" d="M 415 147 A 4 4 0 1 1 415.00399999933336 146.99999800000018 Z" opacity="1" class="highcharts-point" id="svg_85"/><path fill="#2a8e40" d="M 425 156 A 4 4 0 1 1 425.00399999933336 155.99999800000018 Z" opacity="1" class="highcharts-point" id="svg_86"/><path fill="#2a8e40" d="M 434 166 A 4 4 0 1 1 434.00399999933336 165.99999800000018 Z" opacity="1" class="highcharts-point" id="svg_87"/><path fill="#2a8e40" d="M 443 175 A 4 4 0 1 1 443.00399999933336 174.99999800000018 Z" opacity="1" class="highcharts-point" id="svg_88"/><path fill="#2a8e40" d="M 453 179 A 4 4 0 1 1 453.00399999933336 178.99999800000018 Z" opacity="1" class="highcharts-point" id="svg_89"/><path fill="#2a8e40" d="M 462 186 A 4 4 0 1 1 462.00399999933336 185.99999800000018 Z" opacity="1" class="highcharts-point" id="svg_90"/><path fill="#2a8e40" d="M 471 200 A 4 4 0 1 1 471.00399999933336 199.99999800000018 Z" opacity="1" class="highcharts-point" id="svg_91"/><path fill="#2a8e40" d="M 481 207 A 4 4 0 1 1 481.00399999933336 206.99999800000018 Z" opacity="1" class="highcharts-point" id="svg_92"/><path fill="#2a8e40" d="M 490 216 A 4 4 0 1 1 490.00399999933336 215.99999800000018 Z" opacity="1" class="highcharts-point" id="svg_93"/><path fill="#2a8e40" d="M 499 228 A 4 4 0 1 1 499.00399999933336 227.99999800000018 Z" opacity="1" class="highcharts-point" id="svg_94"/><path fill="#2a8e40" d="M 509 239 A 4 4 0 1 1 509.00399999933336 238.99999800000018 Z" opacity="1" class="highcharts-point" id="svg_95"/></g></g><text x="300" text-anchor="middle" class="highcharts-title selected" data-z-index="4" style="color:#333333;font-size:18px;fill:#333333;" y="24" id="svg_96" opacity="0"><tspan id="svg_97">Chart title</tspan></text><text x="300" text-anchor="middle" class="highcharts-subtitle" data-z-index="4" style="color:#666666;fill:#666666;" y="46" id="svg_98"/><text x="10" text-anchor="start" class="highcharts-caption" data-z-index="4" style="color:#666666;fill:#666666;" y="397" id="svg_99"/><g class="highcharts-legend" data-z-index="7" id="svg_100" opacity="0"><rect fill="none" class="highcharts-legend-box" rx="0" ry="0" x="222" y="360" width="155" height="25" visibility="visible" id="svg_101" opacity="0"/><g data-z-index="1" id="svg_102" opacity="0"><g id="svg_103" opacity="0"><g class="highcharts-legend-item highcharts-area-series highcharts-color-undefined highcharts-series-0" data-z-index="1" id="svg_104" opacity="0"><text x="251" style="color:#333333;cursor:pointer;font-size:12px;font-weight:bold;fill:#333333;" text-anchor="start" data-z-index="2" y="378" id="svg_105" opacity="0"><tspan x="230" y="363" id="svg_106">Total de Matrículas</tspan></text><rect x="232" y="367" width="12" height="12" fill="#2a8e40" rx="6" ry="6" class="highcharts-point" data-z-index="3" id="svg_107" opacity="0"/></g></g></g></g><g class="highcharts-axis-labels highcharts-xaxis-labels" data-z-index="7" id="svg_108" opacity="0"><text x="80.672727272727" style="color:#666666;cursor:default;font-size:11px;fill:#666666;" text-anchor="middle" y="346" opacity="0" id="svg_109">0</text><text x="136.74545454545" style="color:#666666;cursor:default;font-size:11px;fill:#666666;" text-anchor="middle" y="346" opacity="0" id="svg_110">6</text><text x="192.81818181818" style="color:#666666;cursor:default;font-size:11px;fill:#666666;" text-anchor="middle" y="346" opacity="0" id="svg_111">12</text><text x="248.89090909091" style="color:#666666;cursor:default;font-size:11px;fill:#666666;" text-anchor="middle" y="346" opacity="0" id="svg_112">18</text><text x="304.96363636364" style="color:#666666;cursor:default;font-size:11px;fill:#666666;" text-anchor="middle" y="346" opacity="0" id="svg_113">24</text><text x="361.03636363636" style="color:#666666;cursor:default;font-size:11px;fill:#666666;" text-anchor="middle" y="346" opacity="0" id="svg_114">30</text><text x="417.10909090909" style="color:#666666;cursor:default;font-size:11px;fill:#666666;" text-anchor="middle" y="346" opacity="0" id="svg_115">36</text><text x="473.18181818182" style="color:#666666;cursor:default;font-size:11px;fill:#666666;" text-anchor="middle" y="346" opacity="0" id="svg_116">42</text><text x="529.25454545455" style="color:#666666;cursor:default;font-size:11px;fill:#666666;" text-anchor="middle" y="346" opacity="0" id="svg_117">48</text><text x="583.0390625" style="color:#666666;cursor:default;font-size:11px;fill:#666666;" text-anchor="middle" y="346" opacity="0" id="svg_118">54</text><text x="108.70909090909" style="color:#666666;cursor:default;font-size:11px;fill:#666666;" text-anchor="middle" y="346" opacity="0" id="svg_119">3</text><text x="164.78181818182" style="color:#666666;cursor:default;font-size:11px;fill:#666666;" text-anchor="middle" y="346" opacity="0" id="svg_120">9</text><text x="220.85454545455" style="color:#666666;cursor:default;font-size:11px;fill:#666666;" text-anchor="middle" y="346" opacity="0" id="svg_121">15</text><text x="276.92727272727" style="color:#666666;cursor:default;font-size:11px;fill:#666666;" text-anchor="middle" y="346" opacity="0" id="svg_122">21</text><text x="333" style="color:#666666;cursor:default;font-size:11px;fill:#666666;" text-anchor="middle" y="346" opacity="0" id="svg_123">27</text><text x="389.07272727273" style="color:#666666;cursor:default;font-size:11px;fill:#666666;" text-anchor="middle" y="346" opacity="0" id="svg_124">33</text><text x="445.14545454545" style="color:#666666;cursor:default;font-size:11px;fill:#666666;" text-anchor="middle" y="346" opacity="0" id="svg_125">39</text><text x="501.21818181818" style="color:#666666;cursor:default;font-size:11px;fill:#666666;" text-anchor="middle" y="346" opacity="0" id="svg_126">45</text><text x="557.29090909091" style="color:#666666;cursor:default;font-size:11px;fill:#666666;" text-anchor="middle" y="346" opacity="0" id="svg_127">51</text></g><g class="highcharts-axis-labels highcharts-yaxis-labels" data-z-index="7" id="svg_128"><text x="61" style="color:#666666;cursor:default;font-size:11px;fill:#666666;" text-anchor="end" y="332" opacity="1" id="svg_129">200k</text><text x="61" style="color:#666666;cursor:default;font-size:11px;fill:#666666;" text-anchor="end" y="238" opacity="1" id="svg_130">400k</text><text x="61" style="color:#666666;cursor:default;font-size:11px;fill:#666666;" text-anchor="end" y="145" opacity="1" id="svg_131">600k</text><text x="61" style="color:#666666;cursor:default;font-size:11px;fill:#666666;" text-anchor="end" y="52" opacity="1" id="svg_132">800k</text></g><text x="590" class="highcharts-credits" text-anchor="end" data-z-index="8" style="cursor:pointer;color:#999999;font-size:9px;fill:#999999;" y="395" id="svg_133" opacity="0">Highcharts.com</text></g></svg>