<!DOCTYPE svg PUBLIC "-//W3C//DTD SVG 20010904//EN" "http://www.w3.org/TR/2001/REC-SVG-20010904/DTD/svg10.dtd">
<svg version="1.0" xmlns="http://www.w3.org/2000/svg" width="600px" height="260px" viewBox="0 0 6000 2600" preserveAspectRatio="xMidYMid meet">
<g id="layer1" fill="#212121" stroke="none">
 <path d="M600 2545 c41 -96 136 -243 248 -385 82 -104 351 -376 449 -455 l62 -50 -64 -23 c-36 -14 -65 -28 -65 -33 0 -18 65 -109 78 -109 8 0 1 -17 -18 -45 -43 -62 -70 -124 -70 -161 0 -26 -8 -36 -42 -59 -62 -41 -173 -151 -209 -207 -17 -26 -40 -75 -50 -109 -35 -112 -22 -190 57 -354 96 -201 224 -300 404 -312 103 -7 214 21 355 91 124 61 155 86 155 121 0 36 -26 32 -128 -19 -146 -73 -211 -91 -332 -91 -99 0 -109 2 -172 33 -81 39 -135 98 -183 196 -57 114 -80 275 -55 367 13 48 60 90 109 99 l40 7 21 -81 c12 -45 24 -83 25 -84 2 -2 27 15 55 37 29 23 58 41 66 41 7 0 36 -9 64 -20 28 -11 56 -20 63 -20 7 1 39 37 71 80 l59 79 66 -46 c256 -181 411 -362 411 -480 l0 -43 38 0 c49 0 126 -37 220 -106 123 -89 270 -153 437 -190 109 -23 330 -24 447 -1 207 41 482 166 621 283 32 27 74 31 103 9 28 -21 32 -19 39 23 11 63 46 174 71 225 35 69 88 122 150 153 35 17 78 52 118 95 57 62 67 68 88 60 37 -14 84 -57 98 -91 14 -34 12 -34 97 -18 57 10 68 10 94 -6 40 -23 84 -36 107 -29 15 3 21 17 26 54 11 84 21 99 61 99 49 0 91 -24 112 -63 14 -25 18 -54 17 -132 -2 -225 -99 -412 -251 -483 -52 -24 -70 -27 -163 -27 -123 0 -199 20 -349 92 -51 24 -94 43 -96 41 -38 -45 -22 -81 55 -132 124 -80 278 -122 411 -113 158 11 310 117 409 286 72 124 84 169 85 306 0 109 -2 125 -26 176 -31 65 -85 129 -137 161 -70 42 -172 130 -172 148 0 34 -33 121 -56 146 l-23 24 39 65 c22 36 40 69 40 73 0 4 -33 5 -72 1 -40 -4 -74 -6 -75 -5 -2 1 47 47 109 102 186 165 392 402 513 589 52 81 145 246 145 259 0 4 -50 5 -111 4 l-110 -3 -40 -104 c-68 -180 -184 -377 -336 -566 -83 -104 -113 -135 -113 -117 0 6 4 13 9 16 18 12 103 167 137 251 37 91 84 256 84 290 -1 11 -14 -30 -30 -92 -70 -268 -183 -464 -348 -605 -60 -52 -180 -126 -192 -119 -2 1 -6 -2 -8 -8 -2 -6 0 -11 5 -11 13 0 154 88 180 113 13 11 25 18 28 15 3 -2 -29 -37 -70 -77 -41 -40 -75 -75 -75 -78 0 -3 42 -2 93 2 l93 7 37 -41 c31 -35 37 -48 37 -86 0 -56 -15 -58 -67 -9 -47 45 -70 54 -135 54 -64 0 -107 -21 -138 -67 -22 -32 -25 -47 -26 -128 0 -72 -4 -99 -20 -125 -19 -33 -87 -80 -99 -68 -4 3 -9 24 -12 45 -6 50 25 143 77 228 22 36 40 68 40 70 0 16 -21 -1 -48 -39 -17 -24 -65 -85 -107 -136 l-76 -93 -12 32 c-8 21 -18 31 -32 30 -15 -1 -16 -2 -3 -6 9 -2 21 -17 27 -34 5 -16 14 -29 18 -29 4 0 39 38 77 85 38 47 71 84 72 82 1 -1 -9 -36 -23 -77 -17 -51 -23 -87 -20 -114 7 -52 19 -62 57 -46 65 27 105 108 94 191 -8 60 10 119 46 154 29 28 37 30 109 30 l78 0 47 -43 c60 -56 80 -53 84 12 3 46 1 52 -40 93 l-43 45 -84 -6 -85 -6 155 157 c166 169 268 291 370 443 79 119 167 289 205 397 l29 83 98 0 c53 0 97 -2 97 -5 0 -3 -18 -41 -40 -84 -54 -109 -182 -296 -283 -416 -86 -101 -319 -335 -412 -413 l-50 -42 88 6 88 7 -40 -64 c-41 -64 -50 -89 -31 -89 17 0 49 -61 62 -118 10 -48 19 -60 70 -103 32 -27 85 -67 118 -89 102 -69 149 -152 157 -280 8 -111 -10 -199 -62 -300 -159 -306 -411 -403 -717 -274 -79 33 -164 87 -178 113 -8 15 -8 27 0 41 10 19 13 19 81 -15 38 -20 111 -50 162 -67 81 -28 105 -32 202 -33 105 0 114 2 177 33 149 73 240 242 255 472 5 73 3 93 -15 133 -24 54 -70 87 -123 87 -46 0 -57 -14 -71 -89 -11 -61 -12 -61 -46 -61 -19 0 -52 10 -73 22 -36 20 -43 21 -106 9 -61 -11 -67 -11 -76 6 -19 35 -93 102 -121 109 -22 5 -31 2 -44 -17 -40 -58 -109 -122 -153 -141 -112 -48 -190 -178 -234 -391 -5 -26 -7 -27 -28 -12 -33 23 -70 18 -113 -16 -151 -120 -395 -229 -614 -275 -101 -21 -322 -23 -420 -5 -164 32 -322 99 -462 197 -97 67 -172 104 -215 104 -31 0 -33 2 -33 34 0 124 -169 319 -431 496 l-58 40 -62 -80 c-34 -44 -64 -80 -68 -80 -3 0 -30 9 -59 20 -29 11 -58 20 -66 20 -7 0 -34 -16 -60 -36 -26 -20 -50 -33 -54 -30 -3 4 -15 39 -27 79 l-20 72 -35 -4 c-89 -8 -131 -64 -138 -180 -11 -214 103 -435 261 -507 131 -59 287 -42 477 52 121 59 140 64 140 35 0 -26 -32 -50 -138 -104 -341 -176 -604 -104 -754 205 -65 133 -82 196 -74 277 12 132 114 283 255 376 53 35 60 44 61 73 0 43 21 91 70 163 34 50 37 59 21 59 -20 0 -85 90 -73 101 4 4 31 14 59 24 29 9 56 21 59 27 4 5 31 -14 63 -44 31 -30 79 -72 106 -93 28 -22 55 -43 60 -48 10 -9 -140 -2 -197 9 l-28 6 0 -77 c0 -119 25 -144 84 -81 30 33 33 34 123 38 l92 4 31 -75 c16 -42 30 -79 30 -83 0 -4 -10 -8 -22 -10 -19 -2 -24 -10 -26 -45 -4 -58 8 -75 90 -133 74 -52 123 -64 135 -34 5 14 -5 74 -22 129 -5 16 -2 15 12 -5 35 -49 96 -110 109 -110 19 0 34 33 34 75 l0 35 64 -47 c63 -47 64 -48 43 -64 -18 -15 -19 -20 -8 -47 19 -46 47 -67 156 -117 222 -104 389 -141 450 -101 15 10 25 22 23 28 -2 6 -64 49 -138 95 -548 345 -894 685 -1065 1046 -70 147 -89 229 -90 382 0 72 4 147 8 168 l8 37 -36 0 -36 0 3 43 3 42 94 3 93 3 -7 -67 c-12 -110 -7 -313 9 -405 20 -109 62 -230 107 -304 37 -62 114 -153 122 -145 3 3 1 25 -4 50 -6 25 -13 153 -16 284 l-6 239 30 -33 c36 -40 49 -36 121 46 47 53 183 294 165 294 -4 -1 -24 -35 -43 -78 -45 -99 -117 -208 -164 -249 -20 -18 -40 -33 -44 -33 -5 0 -18 14 -30 30 -13 17 -28 30 -34 30 -11 0 -5 -444 8 -525 l6 -40 -31 35 c-86 97 -158 268 -182 429 -7 54 -10 150 -7 268 l5 184 -101 -3 -101 -3 -3 -52 -3 -53 35 0 c35 0 35 -1 28 -32 -4 -18 -7 -91 -7 -163 1 -164 21 -241 110 -420 131 -265 362 -521 700 -776 113 -85 304 -214 413 -278 39 -24 72 -47 72 -52 0 -18 -46 -32 -101 -31 -73 1 -238 56 -379 126 -88 43 -108 58 -125 89 -17 31 -18 39 -6 46 8 5 20 7 28 4 7 -3 13 -1 13 5 0 9 -152 132 -164 132 -3 0 -3 -21 0 -47 11 -101 -33 -91 -113 26 -27 38 -53 77 -59 87 -23 38 -23 6 0 -42 27 -56 46 -118 46 -151 0 -49 -83 -18 -175 66 -32 29 -36 37 -33 74 3 37 6 42 31 45 15 2 27 4 27 6 0 1 -17 42 -38 92 l-38 89 -98 -4 c-98 -3 -99 -4 -128 -37 -52 -60 -68 -44 -68 67 0 62 2 70 18 65 9 -2 67 -7 127 -11 107 -5 109 -5 85 12 -192 138 -402 367 -529 578 -85 141 -170 347 -201 488 l-13 57 -143 0 -143 0 19 -45z m280 -52 c71 -270 230 -553 430 -768 77 -82 46 -60 -108 77 -185 166 -347 348 -467 528 -56 85 -135 227 -135 244 0 3 58 6 128 6 l129 0 23 -87z m3745 -781 l-68 -67 64 72 c35 39 66 70 68 67 3 -3 -26 -35 -64 -72z m-374 -389 c-5 -10 -17 -27 -26 -38 -16 -19 -17 -19 -3 5 26 46 29 50 34 50 3 0 0 -8 -5 -17z"/>
 <path d="M1087 2553 c3 -21 9 -56 13 -78 10 -54 11 -4 1 58 l-8 47 93 0 93 0 5 -42 c26 -215 52 -325 111 -473 44 -112 133 -280 207 -393 38 -57 67 -106 64 -109 -9 -9 -75 18 -133 56 -126 82 -237 233 -313 428 -36 92 -98 318 -101 368 -1 14 -3 15 -6 4 -6 -23 33 -189 72 -306 86 -258 227 -450 388 -527 82 -40 117 -51 117 -39 0 5 -34 60 -75 123 -185 280 -288 556 -320 863 l-6 57 -104 0 -104 0 6 -37z"/>
 <path d="M1805 2538 c-20 -68 -32 -218 -17 -218 6 0 14 10 17 23 14 45 79 141 132 193 l53 54 -84 0 -85 0 -16 -52z m110 -11 c-27 -30 -67 -83 -87 -118 -34 -57 -38 -61 -38 -34 0 41 18 149 30 180 9 23 14 25 78 25 l68 0 -51 -53z"/>
 <path d="M4010 2588 c0 -2 30 -35 68 -73 37 -39 82 -99 100 -133 18 -34 37 -62 43 -62 12 0 10 142 -4 210 l-12 55 -97 3 c-54 1 -98 1 -98 0z m191 -35 c6 -16 13 -71 16 -123 l5 -95 -42 65 c-23 36 -67 91 -98 123 l-56 57 82 0 c81 0 83 -1 93 -27z"/>
 <path d="M4380 2586 c0 -3 7 -35 16 -73 25 -107 15 -330 -20 -448 -29 -97 -104 -275 -115 -275 -4 0 -18 11 -30 24 -23 24 -23 24 -6 103 24 114 30 240 13 288 -12 38 -15 40 -63 46 -127 16 -203 98 -259 281 -3 9 -20 19 -44 23 -44 7 -83 -8 -135 -51 -17 -14 -42 -24 -60 -24 -27 0 -29 -2 -17 -15 15 -14 118 -45 151 -45 16 0 103 -111 157 -201 23 -39 28 -75 12 -99 -15 -24 -41 -1 -80 71 -19 36 -45 79 -58 96 -27 39 -97 73 -143 72 -31 -1 -29 -2 12 -9 82 -14 115 -44 182 -165 46 -83 70 -101 94 -69 26 35 15 71 -53 171 -90 134 -94 137 -167 152 -69 14 -108 31 -71 31 11 0 29 9 40 21 34 38 92 61 134 54 33 -6 39 -11 44 -40 12 -60 66 -153 116 -198 49 -44 103 -67 158 -67 28 0 32 -4 43 -42 14 -52 7 -161 -16 -281 l-18 -88 28 -29 c16 -17 32 -30 35 -30 10 0 84 163 109 240 59 181 69 407 25 553 -5 15 4 17 95 17 l101 0 0 -61 0 -61 -25 16 c-13 9 -27 16 -31 16 -3 0 -3 -39 1 -87 4 -50 2 -132 -4 -188 -58 -524 -463 -1007 -1151 -1373 -63 -34 -111 -62 -106 -62 16 0 228 115 331 179 235 148 481 360 625 540 220 274 337 606 316 894 l-7 89 23 -16 c12 -9 26 -16 30 -16 5 0 8 32 8 70 l0 70 -110 0 c-60 0 -110 -2 -110 -4z"/>
 <path d="M4741 2495 c-14 -104 -56 -274 -94 -375 -64 -169 -180 -402 -260 -518 -16 -24 -27 -46 -24 -49 9 -8 123 190 192 332 107 222 181 454 199 628 l8 67 90 0 91 0 -6 -52 c-4 -29 -9 -75 -12 -103 -4 -44 -4 -46 4 -15 6 19 13 68 16 108 l7 72 -99 0 -100 0 -12 -95z"/>
 <path d="M3403 2478 c4 -73 13 -126 32 -183 18 -55 25 -93 22 -122 l-4 -42 101 -69 c55 -38 133 -88 173 -111 l71 -42 49 20 c26 11 74 28 107 37 67 19 64 21 96 -65 108 -283 -94 -596 -568 -878 -58 -34 -108 -61 -110 -59 -2 2 9 23 24 45 33 50 26 63 -15 28 -36 -30 -123 -72 -195 -95 -69 -22 -243 -22 -311 0 -76 25 -124 47 -182 84 -29 18 -53 29 -53 24 0 -6 16 -42 35 -80 19 -38 35 -72 35 -75 0 -9 -155 90 -251 161 -182 135 -320 283 -405 431 -104 181 -136 409 -67 477 32 32 56 33 85 4 19 -19 32 -22 87 -21 169 5 307 75 379 192 52 83 72 168 72 297 0 63 -4 114 -9 114 -5 0 -14 -14 -21 -30 -16 -38 -46 -60 -81 -60 -43 0 -59 -10 -80 -51 -16 -33 -24 -39 -52 -39 -98 0 -190 -71 -256 -199 -38 -73 -43 -79 -76 -83 -34 -4 -35 -3 -35 28 0 25 22 65 88 161 l87 128 53 1 c41 2 59 7 78 25 24 22 24 24 7 37 -38 29 -135 73 -151 69 -13 -4 -13 -5 3 -6 27 -2 138 -63 143 -79 5 -17 -65 -45 -105 -40 -32 4 -35 1 -123 -129 -81 -117 -91 -137 -88 -171 3 -36 4 -37 38 -34 19 2 38 6 43 9 4 2 24 36 43 75 64 127 156 198 257 198 26 0 37 5 42 19 14 44 45 71 84 71 38 0 62 18 90 65 9 16 11 -6 8 -105 -3 -98 -9 -137 -26 -182 -64 -166 -193 -255 -382 -266 -79 -4 -89 -2 -118 19 -62 46 -122 -8 -129 -115 -9 -144 62 -345 177 -496 65 -86 226 -242 329 -318 92 -68 256 -172 272 -172 6 0 -6 32 -26 71 -19 39 -33 73 -31 75 2 3 31 -11 63 -30 105 -62 174 -80 304 -80 130 0 199 18 303 79 31 19 57 31 57 27 0 -4 -9 -20 -20 -37 -39 -59 -26 -55 145 48 148 89 271 185 366 285 145 154 202 274 202 432 1 75 -4 107 -21 151 -37 93 -38 93 -109 75 -34 -9 -83 -25 -108 -36 -55 -24 -40 -30 -236 98 l-147 96 6 38 c3 25 -5 66 -24 125 -22 71 -28 107 -28 185 -1 54 -5 98 -10 98 -5 0 -6 -46 -3 -102z"/>
 <path d="M3420 2537 c0 -18 42 -88 57 -94 9 -3 25 -1 36 6 17 11 26 7 76 -43 31 -31 59 -56 62 -56 3 0 -24 29 -59 65 -59 59 -66 63 -78 47 -17 -23 -42 -8 -71 44 -13 21 -23 35 -23 31z"/>
 <path d="M2276 2279 c-60 -16 -100 -76 -112 -169 -10 -77 37 -140 77 -104 13 12 18 29 17 58 l-1 41 -4 -42 c-2 -23 -11 -47 -20 -54 -13 -11 -19 -9 -40 16 -23 26 -25 35 -19 83 7 62 36 124 68 146 31 22 120 21 147 -1 11 -10 22 -29 23 -43 3 -27 -5 -28 -99 -14 -34 5 -43 3 -51 -13 -14 -28 -23 -73 -14 -73 4 0 9 12 10 26 3 42 21 57 59 50 18 -3 48 -9 67 -12 25 -4 35 -2 40 11 9 25 -23 84 -48 90 -52 10 -73 11 -100 4z"/>
 <path d="M3625 2275 c-22 -8 -41 -15 -42 -15 -1 0 -7 -9 -13 -20 -14 -26 2 -79 29 -104 18 -16 20 -15 37 21 11 21 26 39 35 41 10 2 33 -14 53 -34 34 -35 44 -62 44 -128 0 -15 7 -35 16 -44 14 -14 19 -12 51 22 32 34 35 42 29 74 -11 61 -43 127 -79 162 -40 39 -99 48 -160 25z m135 -18 c41 -27 67 -70 86 -139 12 -48 12 -54 -7 -84 -37 -61 -63 -51 -60 23 1 50 -9 75 -52 121 -44 45 -73 43 -96 -8 l-18 -41 -16 25 c-27 41 -30 70 -9 90 44 39 125 46 172 13z"/>
 <path d="M3510 2024 c0 -20 106 -218 136 -252 40 -47 65 -53 88 -21 12 18 21 21 53 16 23 -4 47 -16 60 -32 31 -35 53 -116 53 -192 0 -35 4 -63 9 -63 13 0 68 177 80 260 10 67 4 140 -12 156 -3 3 -22 -6 -42 -21 -87 -58 -224 -21 -347 94 -62 57 -78 69 -78 55z m155 -129 c28 -17 65 -37 84 -43 53 -19 136 -15 181 8 22 11 41 20 43 20 3 0 7 -17 11 -38 7 -49 -8 -146 -41 -252 l-27 -85 -7 71 c-7 77 -34 148 -67 177 -11 10 -38 21 -60 24 -34 5 -42 2 -51 -16 -28 -51 -80 -2 -152 141 -27 54 -49 99 -49 101 0 2 19 -14 43 -36 23 -22 65 -54 92 -72z"/>
 <path d="M2408 1946 c-98 -109 -197 -135 -299 -79 -27 14 -49 30 -49 35 0 4 -6 8 -14 8 -10 0 -16 -19 -21 -66 -10 -87 -1 -154 28 -217 24 -53 72 -117 87 -117 5 0 6 33 3 74 -7 93 2 142 32 172 30 30 80 32 95 4 15 -29 48 -25 79 9 40 43 141 242 123 241 -4 -1 -33 -29 -64 -64z m8 -54 c-38 -75 -90 -142 -110 -142 -7 0 -21 9 -31 20 -28 31 -78 26 -109 -10 -31 -38 -40 -82 -34 -172 l5 -70 -24 28 c-64 75 -93 185 -78 299 6 52 8 55 23 42 38 -33 102 -57 153 -57 68 0 131 30 189 91 25 25 46 45 48 44 2 -2 -13 -35 -32 -73z"/>
 <path d="M3447 1983 c-2 -5 -7 -20 -11 -35 -10 -44 -116 -194 -235 -332 -116 -137 -140 -176 -115 -197 21 -17 100 -2 125 24 100 105 253 418 234 478 -5 13 -3 19 3 15 5 -3 12 8 14 24 4 27 -5 41 -15 23z m-28 -150 c-52 -160 -183 -373 -245 -399 -53 -22 -84 -19 -84 10 0 27 15 48 116 162 80 91 169 208 205 271 32 57 36 38 8 -44z"/>
 <path d="M2560 1911 c0 -72 90 -266 172 -375 81 -105 114 -133 167 -145 61 -13 81 -7 81 26 0 18 -40 65 -153 181 -158 162 -216 234 -242 296 -17 40 -25 46 -25 17z m145 -201 c31 -36 104 -111 161 -167 130 -126 138 -164 31 -141 -37 8 -56 20 -93 61 -69 76 -160 221 -194 309 -39 100 -38 114 4 53 18 -28 59 -79 91 -115z"/>
 <path d="M3491 1660 c-72 -178 -191 -299 -293 -300 -31 0 -37 -14 -12 -24 74 -28 197 -10 262 38 32 23 77 76 85 99 2 6 12 5 27 -3 44 -22 70 -53 70 -81 0 -68 -68 -99 -305 -139 -250 -43 -499 -36 -720 20 -182 45 -255 87 -255 143 0 11 19 39 43 61 23 23 49 50 57 61 7 11 -14 -8 -48 -41 -34 -34 -62 -71 -62 -82 0 -51 63 -94 200 -135 166 -51 250 -61 465 -61 210 0 350 18 509 64 148 42 170 137 46 200 -21 11 -25 11 -35 -6 -5 -10 -30 -40 -55 -65 -64 -67 -161 -93 -255 -69 -21 5 -24 8 -9 9 41 2 125 54 173 107 47 51 141 218 141 250 0 24 12 16 82 -53 l67 -67 38 18 c35 17 38 17 50 0 7 -10 15 -34 19 -53 8 -51 12 -60 13 -29 1 32 -27 108 -40 108 -4 0 -25 -8 -45 -17 l-37 -18 -66 73 c-37 39 -69 72 -72 72 -3 0 -20 -36 -38 -80z"/>
 <path d="M2440 1721 c0 -11 -90 -170 -99 -176 -4 -2 -25 18 -45 45 -21 28 -42 50 -46 50 -27 0 -27 -149 0 -226 41 -117 151 -225 270 -263 124 -41 410 -89 410 -69 0 4 -16 8 -36 8 -65 0 -236 31 -338 62 -137 41 -220 108 -281 228 -29 57 -45 170 -31 225 7 27 7 26 47 -24 22 -28 45 -51 49 -51 5 0 15 10 21 23 6 12 30 53 52 91 l39 69 37 -69 c46 -88 157 -199 256 -257 84 -49 82 -57 -14 -57 -65 0 -139 22 -192 57 -34 22 -37 28 -41 84 -2 32 -10 65 -17 72 -10 10 -10 6 -2 -16 6 -16 11 -48 11 -72 0 -38 4 -47 34 -70 60 -45 141 -68 229 -63 71 4 107 15 81 25 -28 10 -138 81 -183 117 -64 53 -139 147 -170 214 -22 47 -41 67 -41 43z"/>
 <path d="M3766 1463 c-9 -39 -61 -126 -111 -186 -88 -105 -313 -181 -575 -193 -74 -4 -137 -8 -139 -10 -9 -8 170 -3 254 7 122 15 243 51 345 102 68 34 94 53 133 102 52 64 112 176 104 197 -2 7 -7 -1 -11 -19z"/>
 <path d="M3931 1114 c-14 -25 -35 -53 -47 -63 -21 -17 -22 -21 -11 -50 35 -93 -122 -199 -427 -286 -66 -19 -124 -35 -128 -35 -4 0 -19 23 -34 50 -15 28 -29 48 -31 46 -2 -2 8 -27 24 -55 27 -50 29 -52 63 -45 86 15 274 79 367 125 141 70 203 142 175 204 -9 19 -7 26 10 42 11 10 31 37 45 60 13 23 32 44 41 46 14 4 13 5 -3 6 -14 1 -27 -12 -44 -45z"/>
 <path d="M4319 875 c-14 -7 -33 -29 -43 -47 -15 -28 -23 -33 -46 -30 -26 4 -102 -27 -114 -47 -8 -12 40 -199 55 -217 7 -8 21 -11 39 -7 20 4 48 -4 93 -26 52 -25 76 -31 130 -31 55 0 70 4 94 24 38 33 36 86 -5 169 -36 71 -150 227 -166 227 -6 -1 -22 -7 -37 -15z m103 -75 c73 -95 118 -184 121 -238 2 -60 -17 -75 -102 -80 -60 -4 -75 -1 -135 28 -47 23 -75 31 -95 27 -33 -7 -41 6 -65 100 -30 123 -32 112 20 134 29 13 57 19 75 15 22 -4 29 -2 29 10 0 21 66 87 82 82 7 -3 39 -38 70 -78z"/>
 <path d="M1592 796 c-40 -41 -81 -94 -92 -117 -36 -81 -22 -166 38 -223 l30 -28 54 17 c181 60 300 144 297 211 0 11 -5 6 -10 -12 -18 -63 -110 -125 -263 -180 l-79 -28 -33 39 c-53 60 -57 149 -11 225 26 42 126 150 140 150 5 0 27 -16 48 -34 39 -36 108 -61 140 -53 21 6 47 -20 59 -59 7 -24 8 -25 9 -7 1 31 -47 85 -70 78 -33 -11 -98 15 -141 55 -23 22 -42 40 -43 40 -1 0 -34 -33 -73 -74z"/>
 </g>
<g id="layer2" fill="#212121" stroke="none">
 <path d="M600 2574 c0 -4 16 -39 36 -78 46 -91 144 -238 231 -346 82 -102 307 -329 420 -424 45 -38 80 -72 78 -77 -3 -4 -29 -15 -58 -24 -28 -10 -55 -20 -59 -24 -12 -11 53 -101 73 -101 16 0 13 -9 -21 -59 -49 -72 -70 -120 -70 -163 -1 -29 -8 -38 -61 -73 -141 -93 -243 -244 -255 -376 -8 -81 9 -144 74 -277 150 -309 413 -381 754 -205 106 54 138 78 138 104 0 29 -19 24 -140 -35 -190 -94 -346 -111 -477 -52 -158 72 -272 293 -261 507 7 116 49 172 138 180 l35 4 20 -72 c12 -40 24 -75 27 -79 4 -3 28 10 54 30 26 20 53 36 60 36 8 0 37 -9 66 -20 29 -11 56 -20 59 -20 4 0 34 36 68 80 l62 80 58 -40 c262 -177 431 -372 431 -496 0 -32 2 -34 33 -34 43 0 118 -37 215 -104 140 -98 298 -165 462 -197 98 -18 319 -16 420 5 219 46 463 155 614 275 43 34 80 39 113 16 21 -15 23 -14 28 12 44 213 122 343 234 391 44 19 113 83 153 141 13 19 22 22 44 17 28 -7 102 -74 121 -109 9 -17 15 -17 76 -6 63 12 70 11 106 -9 21 -12 54 -22 73 -22 34 0 35 0 46 61 14 75 25 89 71 89 53 0 99 -33 123 -87 18 -40 20 -60 15 -133 -15 -230 -106 -399 -255 -472 -63 -31 -72 -33 -177 -33 -97 1 -121 5 -202 33 -51 17 -124 47 -162 67 -68 34 -71 34 -81 15 -8 -14 -8 -26 0 -41 14 -26 99 -80 178 -113 306 -129 558 -32 717 274 52 101 70 189 62 300 -8 128 -55 211 -157 280 -33 22 -86 62 -118 89 -51 43 -60 55 -70 103 -13 57 -45 118 -62 118 -19 0 -10 25 31 89 l40 64 -88 -7 -88 -6 50 42 c93 78 326 312 412 413 101 120 229 307 283 416 22 43 40 81 40 84 0 3 -44 5 -97 5 l-98 0 -29 -83 c-38 -108 -126 -278 -205 -397 -102 -152 -204 -274 -370 -443 l-155 -157 85 6 84 6 43 -45 c41 -41 43 -47 40 -93 -4 -65 -24 -68 -84 -12 l-47 43 -78 0 c-72 0 -80 -2 -109 -30 -37 -36 -50 -79 -47 -170 2 -81 -17 -125 -73 -163 -43 -29 -62 -25 -74 16 -16 55 12 149 77 257 18 29 18 29 0 5 -42 -57 -176 -215 -184 -218 -5 -2 -14 10 -20 27 -6 17 -16 31 -22 31 -35 -1 -59 -17 -81 -54 -13 -22 -33 -49 -44 -59 -17 -16 -19 -23 -10 -42 28 -62 -34 -134 -175 -204 -93 -46 -281 -110 -367 -125 -34 -7 -36 -5 -63 45 -16 28 -27 52 -25 53 2 2 57 31 123 66 417 219 747 498 942 797 157 241 237 522 218 766 -4 48 -4 87 -1 87 4 0 18 -7 31 -16 l25 -16 0 61 0 61 -101 0 c-91 0 -100 -2 -95 -17 19 -63 26 -122 26 -228 0 -124 -14 -210 -51 -325 -25 -77 -99 -240 -109 -240 -3 0 -19 13 -35 30 l-28 29 18 88 c23 120 30 229 16 281 -11 38 -15 42 -43 42 -55 0 -109 23 -158 67 -50 45 -104 138 -116 198 -5 29 -11 34 -44 40 -42 7 -100 -16 -134 -54 -11 -12 -29 -21 -40 -21 -37 0 2 -17 71 -31 73 -15 77 -18 167 -152 68 -100 79 -136 53 -171 -24 -32 -48 -14 -94 69 -71 128 -113 162 -208 166 -34 2 -49 11 -96 56 -50 49 -59 53 -76 42 -31 -19 -51 -5 -79 53 l-26 53 6 -90 c3 -57 15 -120 32 -170 17 -53 24 -94 21 -121 l-4 -40 146 -96 c196 -128 181 -122 236 -98 25 11 74 27 108 36 71 18 72 18 109 -75 17 -44 22 -76 21 -151 0 -158 -57 -278 -202 -432 -95 -100 -218 -196 -366 -285 -171 -103 -184 -107 -145 -48 11 17 20 33 20 37 0 4 -26 -8 -57 -27 -200 -117 -431 -110 -641 20 l-43 27 41 -81 c22 -45 36 -81 30 -81 -16 0 -180 104 -272 172 -103 76 -264 232 -329 318 -181 239 -238 577 -106 624 22 8 33 5 58 -13 29 -21 39 -23 118 -19 189 11 318 100 382 266 17 45 23 84 26 182 3 99 1 121 -8 105 -28 -47 -52 -65 -90 -65 -39 0 -70 -27 -84 -71 -5 -14 -16 -19 -42 -19 -101 0 -193 -71 -257 -198 -19 -39 -39 -73 -43 -75 -5 -3 -24 -7 -43 -9 -34 -3 -35 -2 -38 34 -3 34 7 54 88 171 88 130 91 133 123 129 40 -5 110 23 105 40 -5 15 -95 66 -138 78 l-30 8 -61 -118 c-59 -114 -137 -217 -182 -241 -18 -10 -25 -7 -50 21 l-30 33 6 -239 c3 -131 10 -259 16 -284 5 -25 7 -47 4 -50 -8 -8 -85 83 -122 145 -45 74 -87 195 -107 304 -16 92 -21 295 -9 405 l7 67 -93 -3 -94 -3 -3 -42 -3 -43 36 0 36 0 -8 -37 c-4 -21 -8 -96 -8 -168 1 -153 20 -235 90 -382 171 -361 517 -701 1065 -1046 74 -46 136 -89 138 -95 2 -6 -8 -18 -23 -28 -61 -40 -228 -3 -450 101 -109 50 -137 71 -156 117 -11 27 -10 32 8 47 21 16 20 17 -43 64 l-64 47 0 -35 c0 -42 -15 -75 -33 -75 -16 0 -74 60 -112 115 -15 22 -24 31 -20 20 21 -53 38 -133 32 -148 -12 -32 -60 -20 -135 33 -82 58 -94 75 -90 133 2 35 7 43 26 45 12 2 22 6 22 10 0 4 -14 41 -30 83 l-31 75 -92 -4 c-90 -4 -93 -5 -123 -38 -59 -63 -84 -38 -84 81 l0 77 28 -6 c58 -11 207 -18 197 -9 -5 5 -39 32 -75 60 -90 70 -262 250 -342 356 -133 180 -244 406 -298 610 l-23 87 -129 0 c-70 0 -128 -3 -128 -6z m1776 -299 c25 -6 57 -65 48 -90 -5 -13 -15 -15 -40 -11 -19 3 -49 9 -67 12 -48 8 -61 -12 -59 -95 1 -55 -2 -71 -17 -85 -23 -21 -42 -14 -65 25 -31 52 -6 168 47 217 38 36 75 42 153 27z m1409 -25 c36 -35 68 -101 79 -162 6 -32 3 -40 -29 -74 -32 -34 -37 -36 -51 -22 -9 9 -16 29 -16 44 0 66 -10 93 -44 128 -20 20 -43 36 -53 34 -9 -2 -24 -20 -35 -41 -17 -36 -19 -37 -37 -21 -27 25 -43 78 -29 104 6 11 12 20 13 20 1 0 20 7 42 15 61 23 120 14 160 -25z"/>
 <path d="M1107 2488 c34 -231 110 -471 198 -621 53 -90 155 -202 225 -247 59 -38 155 -77 144 -58 -4 7 -38 58 -74 114 -73 110 -161 278 -205 389 -59 148 -85 258 -111 473 l-5 42 -93 0 -93 0 14 -92z"/>
 <path d="M1820 2555 c-12 -31 -30 -139 -30 -180 0 -27 4 -23 38 34 20 35 60 88 87 118 l51 53 -68 0 c-64 0 -69 -2 -78 -25z"/>
 <path d="M4082 2523 c31 -32 75 -87 98 -123 l42 -65 -5 95 c-3 52 -10 107 -16 123 -10 26 -12 27 -93 27 l-82 0 56 -57z"/>
 <path d="M4754 2513 c-9 -95 -57 -286 -100 -401 -48 -130 -147 -333 -227 -465 l-65 -107 57 30 c255 137 446 464 506 867 23 156 30 143 -74 143 l-89 0 -8 -67z"/>
 <path d="M3530 2003 c0 -2 22 -47 49 -101 72 -143 124 -192 152 -141 9 18 17 21 51 16 22 -3 49 -14 60 -24 33 -29 60 -100 67 -177 l7 -71 27 85 c33 106 48 203 41 252 -4 21 -8 38 -11 38 -2 0 -21 -9 -43 -20 -45 -23 -128 -27 -181 -8 -46 15 -125 67 -176 115 -24 22 -43 38 -43 36z"/>
 <path d="M2400 1921 c-58 -61 -121 -91 -189 -91 -51 0 -115 24 -153 57 -15 13 -17 10 -23 -42 -15 -114 14 -224 78 -299 l24 -28 -5 70 c-6 90 3 134 34 172 31 36 81 41 109 10 25 -28 38 -25 74 15 29 33 106 174 99 180 -2 1 -23 -19 -48 -44z"/>
 <path d="M3421 1894 c-34 -63 -129 -190 -214 -287 -102 -115 -117 -136 -117 -163 0 -29 31 -32 84 -10 65 27 197 245 250 415 15 46 25 85 23 87 -1 2 -13 -17 -26 -42z"/>
 <path d="M2580 1862 c0 -33 66 -176 118 -257 89 -136 143 -191 199 -203 107 -23 99 15 -31 141 -122 120 -205 213 -252 282 -19 27 -34 44 -34 37z"/>
 <path d="M3520 1706 c0 -32 -94 -199 -141 -250 -48 -53 -132 -105 -173 -107 -15 -1 -12 -4 9 -9 94 -24 191 2 255 69 25 25 50 55 55 65 10 17 14 17 35 6 124 -63 102 -158 -46 -200 -159 -46 -299 -64 -509 -64 -215 0 -299 10 -465 61 -137 41 -200 84 -200 135 0 22 108 138 128 138 17 0 32 -43 32 -94 0 -39 4 -46 38 -68 54 -36 128 -58 193 -58 96 0 98 8 14 57 -99 58 -210 169 -256 257 l-37 69 -39 -69 c-22 -38 -46 -79 -52 -91 -6 -13 -16 -23 -21 -23 -4 0 -27 23 -49 51 -40 50 -40 51 -47 24 -4 -15 -4 -59 -2 -98 7 -112 61 -204 168 -289 95 -76 364 -133 625 -132 173 0 271 15 400 61 152 55 200 91 276 207 67 102 85 197 46 250 -12 17 -15 17 -50 0 l-38 -18 -67 67 c-70 69 -82 77 -82 53z"/>
 <path d="M4305 847 c-19 -19 -35 -42 -35 -51 0 -12 -7 -14 -29 -10 -18 4 -46 -2 -75 -15 -52 -22 -50 -11 -20 -134 24 -94 32 -107 65 -100 20 4 48 -4 95 -27 60 -29 75 -32 135 -28 48 2 74 9 86 21 26 26 19 91 -17 162 -33 66 -137 206 -158 213 -7 2 -28 -12 -47 -31z"/>
 <path d="M1599 793 c-69 -73 -96 -118 -105 -170 -9 -61 2 -105 40 -148 l33 -39 79 28 c201 71 288 151 263 240 -11 39 -36 65 -58 59 -32 -8 -101 17 -140 53 -21 18 -43 34 -48 34 -6 0 -34 -26 -64 -57z"/>
 </g>

</svg>